<?xml version="1.0" encoding="UTF-8"?>
<svg width="66px" height="89px" viewBox="0 0 66 89" version="1.1" xmlns="http://www.w3.org/2000/svg" xmlns:xlink="http://www.w3.org/1999/xlink">
    <!-- Generator: Sketch 46.2 (44496) - http://www.bohemiancoding.com/sketch -->
    <title>Shape</title>
    <desc>Created with Sketch.</desc>
    <defs></defs>
    <g id="Mobile" stroke="none" stroke-width="1" fill="none" fill-rule="evenodd">
        <g id="Enter-Roster---blank" transform="translate(-126.000000, -180.000000)" fill-rule="nonzero" fill="#FFFFFF">
            <g id="Group-2" transform="translate(62.000000, 180.000000)">
                <g id="noun_656035_cc" transform="translate(64.000000, 0.000000)">
                    <path d="M64.77,36.57 C52.9,24.7 54,3.36 54,3.15 C54.0413933,2.46137405 53.7963906,1.78625114 53.3229884,1.28444488 C52.8495863,0.782638612 52.1898678,0.498757049 51.5,0.5 L43.84,0.5 C42.4592881,0.5 41.34,1.61928813 41.34,3 L41.34,15.72 C41.34,20.3288162 37.6038162,24.065 32.995,24.065 C28.3861838,24.065 24.65,20.3288162 24.65,15.72 L24.65,3 C24.65,2.33695878 24.3866079,1.70107399 23.917767,1.23223305 C23.448926,0.763392101 22.8130412,0.5 22.15,0.5 L14.5,0.5 C13.8101322,0.498757049 13.1504137,0.782638612 12.6770116,1.28444488 C12.2036094,1.78625114 11.9586067,2.46137405 12,3.15 C12,3.36 13.1,24.7 1.23,36.57 C0.761430255,37.0397537 0.498815018,37.6765057 0.5,38.34 L0.5,86 C0.5,87.3807119 1.61928813,88.5 3,88.5 L63,88.5 C64.3807119,88.5 65.5,87.3807119 65.5,86 L65.5,38.33 C65.4985381,37.6699707 65.2361237,37.0373003 64.77,36.57 Z M60.5,83.5 L50,83.5 L50,52 C50,51.1715729 49.3284271,50.5 48.5,50.5 C47.6715729,50.5 47,51.1715729 47,52 L47,83.5 L5.5,83.5 L5.5,39.34 C15.77,28.39 17,11.91 17,5.5 L19.61,5.5 L19.61,15.72 C19.61,23.09024 25.58476,29.065 32.955,29.065 C40.32524,29.065 46.3,23.09024 46.3,15.72 L46.3,5.5 L49,5.5 C49,11.91 50.23,28.39 60.5,39.34 L60.5,83.5 Z" id="Shape"></path>
                </g>
            </g>
        </g>
    </g>
</svg>